<svg xmlns="http://www.w3.org/2000/svg" width="300" height="295.49" viewBox="0 0 300 295.49"><defs><style>.a{fill:white;}.b{fill:#ed1c24;}</style></defs><path class="a" d="M300,112.16,255.94,35.75,194.06,71.43,194,0l-88.2.05,0,71.33L44.06,35.75,0,112.16l61.71,35.58L0,183.33l44.06,76.41,61.88-35.68,0,71.43,88.2-.05,0-71.33,61.8,35.63L300,183.33l-61.71-35.59Z"/><polygon class="b" points="150.03 217.59 146.53 210.44 153.53 210.44 150.03 217.59"/><polygon class="b" points="143.61 205.69 143.61 205.69 143.61 205.69 143.61 205.69 143.6 193.01 156.4 195.09 156.4 205.78 143.61 205.69"/><path class="b" d="M183.19,184.08c-3.87,5.71-9.58,8.62-16.24,7.65-15.87-2.31-31.67-5.18-47.45-8-1.79-.33-4.24-1.89-4.52-4.28h28.63v-6h12.78v6h9.8a19,19,0,0,0,2.14,0,5.37,5.37,0,0,0,5.11-5.39,5.28,5.28,0,0,0-5.24-5.26c-3.56-.16-7.13,0-10.7,0-17.36,0-7.45.08-24.81,0-10.86,0-18.93-7.67-19.06-17.94s8-18.17,18.85-18.23l11.13-.06v-5.93h12.78v5.9h9.1a22.88,22.88,0,0,0,3.21-.07c3-.43,4.73-2.3,4.72-5.3a4.85,4.85,0,0,0-4.49-5.12,28.89,28.89,0,0,0-4.27-.17c-4.86,0-7.06,0-8.27,0v0h-1.66c-.93,0-2.27,0-9.53,0h-1.59v0a31.22,31.22,0,0,1-15.15-4.11c-12.87-7.61-13.43-24.15-.92-32.32A22,22,0,0,1,134.89,82c10.45-3.05,21.17-1.54,32-1.85-.61,4-.79,5.63-3.89,7.06a53.43,53.43,0,0,1-8.74,2.84c-3,.8-3.53,2-1.51,4.4,1,1.14,2,2.22,3.65,4-4,0-12.52,0-15.67.09-3.91.06-6.32,2.06-6.39,5.2s2.48,5.43,6.54,5.44h2.71v-6.06h12.78v6c2.27,0,5.3,0,11.48,0,11.94.11,20,9.84,18,21.4A17.72,17.72,0,0,1,170,145.05c-4.74.34-9.51.2-14.26.2-15.7,0-4.12.05-19.82.06a30.61,30.61,0,0,0-5,.19,4.88,4.88,0,0,0-4.41,5.54,4.83,4.83,0,0,0,4.78,4.85c1.65.15,3.32.05,5,.05h7.29V150h12.78v5.87l10.45,0c7.74,0,13.88,3.19,17.46,10.25A16.74,16.74,0,0,1,183.19,184.08Z"/><path class="a" d="M152.86,85.3a6.08,6.08,0,0,0,2.47.56,5.31,5.31,0,0,0,2.48-.58c.38-.28.3-2,.3-2l-5.47-.15S152.45,85,152.86,85.3Z"/></svg>