<svg xmlns="http://www.w3.org/2000/svg" viewBox="0 0 1080 1080"><defs><style>.a{fill:white;}</style></defs><path class="a" d="M550.16,357.79c2.05,1.72,8.9,2,8.9,2,2,0,6.65-.47,8.92-2.1,1.39-1,1.08-7.24,1.08-7.24l-19.7-.57S548.71,356.56,550.16,357.79Z"/><path class="a" d="M1080,411.9,921.38,136.81,698.63,265.26,698.49,8.12l-317.55.17.14,256.8L158.62,136.81,0,411.9,222.16,540,0,668.11,158.62,943.2,381.37,814.75l.14,257.13,317.55-.17-.14-256.79L921.38,943.2,1080,668.11,857.84,540ZM517,147.05a11.89,11.89,0,0,1,11.89-11.89h22.25A11.88,11.88,0,0,1,563,147.05V163H517Zm46,70.28-.16,103.57H547.66l.17-103.62ZM517,181h46v18H517Zm0,36.27h15.4l-.06,103.5-15.48.49ZM459,358c10.22-6.67,14.7-8.64,26.45-12.07,37.62-11,76.24-5.53,115.3-6.67-2.2,14.52-2.85,20.29-14,25.42a109.84,109.84,0,0,1-11.37,4.38l-.69,13.66-11.32-10-1.19.35c-2.31.63-4.62,1.24-6.93,1.85-10.81,2.87-12.67,7.36-5.44,15.82,3.52,4.11,7.29,8,13.15,14.36-14.38,0-45.07.14-56.41.32-14.06.24-22.73,7.44-23,18.72-.22,9.22,5.58,16.14,15.31,18.61v44.58a104.55,104.55,0,0,1-36.54-13C416,447,414,387.42,459,358ZM476.79,527.9l40.07-.21V506.34l0-84.46h15.4l0,107.25h15.42l0-107.25h15.21V422l0,84.39v21.22h32.77c3.85,0,7.76.27,11.55-.26,10.91-1.55,17-8.27,17-19.08,0-10.19-5.83-16.85-16.17-18.43-5-.77-10.24-.62-15.37-.62H581v-45.8c6.07,0,13.55.07,23.17.16,43,.39,72,35.42,65,77-4.69,27.73-28.65,50.27-57.26,52.35-17,1.24-34.22.72-51.34.73-56.51.06-14.82.18-71.33.2-6,0-12.08-.29-17.93.69-10.92,1.83-16.53,9.14-15.87,19.94.62,10.19,6.72,16.54,17.18,17.47,5.95.53,12,.19,18,.19h8.11v46l-21.16,0c-39.1-.08-68.16-27.61-68.63-64.61C408.47,557,437.83,528.09,476.79,527.9Zm47.75,376.74-7.69-13.59,0-145.51,15.43,2.51v143l-7.57,13.56Zm27.08,26-11.51,23.52-11.53-23.55a4.37,4.37,0,0,1,1.53-5.68,20.5,20.5,0,0,1,10-2.24,21.26,21.26,0,0,1,9.56,2A4.51,4.51,0,0,1,551.62,930.67Zm3.66-25.89-7.59-13.7V750.56L562.91,753l0,138ZM659.35,713.42c-13.91,20.54-34.47,31-58.47,27.53-57.14-8.31-114-18.66-170.82-29-6-1.08-14-6-15.93-13.6l1.5-1.8,83.09,0h18l.11-105.82h15.4V696.51h15.42V590.8h15.2V696.63h35.29a68.11,68.11,0,0,0,7.7-.14c11-1.21,18.5-9.18,18.37-19.41s-7.71-18.41-18.84-18.92c-8.16-.38-16.34-.34-24.52-.27V612l19.6.06c27.88.09,50,11.48,62.85,36.9C674.43,670.85,673.25,692.91,659.35,713.42Z"/></svg>